<svg width="770" height="471" viewBox="0 0 770 471" fill="none" xmlns="http://www.w3.org/2000/svg">
<line x1="118.497" y1="470.468" x2="148.561" y2="0.47214" stroke="white"/>
<line x1="58.4977" y1="469.462" x2="94.5614" y2="0.465719" stroke="white"/>
<line x1="0.498098" y1="470.456" x2="41.5618" y2="0.460516" stroke="white"/>
<line x1="177.497" y1="470.475" x2="201.497" y2="0.47451" stroke="white"/>
<line x1="237.497" y1="470.481" x2="255.497" y2="0.480868" stroke="white"/>
<line x1="297.496" y1="469.488" x2="308.496" y2="0.488299" stroke="white"/>
<line x1="356.496" y1="469.495" x2="361.509" y2="0.494824" stroke="white"/>
<line x1="415.496" y1="469.5" x2="415.496" y2="0.499143" stroke="white"/>
<line x1="474.496" y1="470.506" x2="468.496" y2="0.506409" stroke="white"/>
<line x1="533.496" y1="469.513" x2="521.496" y2="1.51281" stroke="white"/>
<path d="M592.996 469.5L574.497 0.520147" stroke="white"/>
<path d="M592.996 469.5L574.497 0.520147" stroke="white"/>
<line x1="628.496" y1="0.474447" x2="652.496" y2="469.474" stroke="white"/>
<line x1="681.495" y1="0.46815" x2="711.495" y2="470.468" stroke="white"/>
<line x1="734.495" y1="0.462869" x2="769.495" y2="470.463" stroke="white"/>
<line x1="5.9962" y1="411" x2="764.996" y2="411" stroke="white"/>
<line x1="10.9962" y1="354" x2="760.996" y2="354" stroke="white"/>
<line x1="14.9962" y1="299" x2="756.996" y2="299" stroke="white"/>
<line x1="19.9962" y1="246" x2="752.996" y2="246" stroke="white"/>
<path d="M24.4962 194L748.996 194" stroke="white"/>
<path d="M28.9962 143.5L744.996 143.5" stroke="white"/>
<path d="M36.9962 47.5L737.996 47.5" stroke="white"/>
<path d="M40.9962 0.5L734.996 0.5" stroke="white"/>
<path d="M32.9962 93.5L741.996 94.5" stroke="white"/>
<line x1="0.996201" y1="470" x2="768.996" y2="470" stroke="white"/>
</svg>
